<?xml version="1.0" encoding="UTF-8" standalone="no"?><!DOCTYPE svg PUBLIC "-//W3C//DTD SVG 1.1//EN" "http://www.w3.org/Graphics/SVG/1.1/DTD/svg11.dtd"><svg xmlns="http://www.w3.org/2000/svg" xmlns:xlink="http://www.w3.org/1999/xlink" version="1.1" width="360" height="360" viewBox="335 216 360 360" xml:space="preserve">
<desc>Created with Fabric.js 6.5.1</desc>
<defs>
</defs>

<g transform="matrix(1 0 0 1 515.4824 396.3746)" id="vectorized-icon-ai-84db8285-2f3b-4e2b-acf6-a815a5a8e2fb">
<g style="">
		<g transform="matrix(0.2181 0 0 0.2181 0 0)">
<path style="stroke: none; stroke-width: 1; stroke-dasharray: none; stroke-linecap: butt; stroke-dashoffset: 0; stroke-linejoin: miter; stroke-miterlimit: 4; fill: rgb(188,78,44); fill-rule: nonzero; opacity: 1;" transform=" translate(-1040.361, -1079.2508)" d="M 1606.98 384.46 L 1608.9 384.566 L 1610.17 385.995 C 1606.01 402.782 1587.39 416.819 1575.69 430.338 L 1438.69 587.188 L 1084.39 993.36 L 885.406 1223 C 857.192 1255.65 829.391 1288.59 800.537 1320.73 C 797.202 1324.44 793.661 1326.55 789.499 1329.15 L 797.652 1335.07 C 832.19 1334.33 868.423 1334.96 903.148 1334.87 L 1172.12 1334.75 L 1292.79 1334.51 C 1305.52 1334.59 1328.9 1333.28 1340.06 1335.19 L 1347.52 1328.06 C 1349.23 1319.48 1355.16 1304.12 1358.2 1295.25 C 1364.13 1277.93 1369.89 1260.55 1375.47 1243.11 C 1371.95 1237.37 1365.74 1237.67 1359.47 1237.44 C 1339.48 1236.71 1319.34 1237.39 1299.31 1237.57 L 1184.65 1238.77 C 1127.49 1239.4 1065 1237.23 1008.41 1239.76 C 1004.81 1237.24 1003.57 1236.63 1000.86 1233.3 L 1261.1 934.994 L 1344.78 838.951 C 1360.45 820.746 1375.79 799.838 1393.1 783.603 C 1411.46 779.22 1474.73 784.652 1494.31 787.85 C 1599.86 805.299 1693.98 864.403 1755.55 951.895 C 1815.18 1034.49 1839.13 1137.57 1822.03 1237.99 C 1801.84 1360.74 1717.68 1467.08 1607.65 1522.06 C 1594.02 1528.86 1575.42 1533.73 1563.57 1542.38 L 1562.37 1543.27 C 1570.52 1560.24 1578.08 1591.27 1583.56 1610.62 L 1609.7 1700.42 C 1613.78 1714.39 1628.72 1759.28 1630.21 1771.04 C 1629.43 1772.03 1628.64 1773.67 1627.35 1773.95 C 1615.77 1776.48 1538.64 1725.82 1524.48 1715.8 C 1502.01 1698.51 1482.35 1684.53 1461.46 1664.17 C 1441.36 1644.35 1421.97 1623.82 1403.34 1602.61 C 1398.79 1597.39 1380.02 1571.6 1374.3 1571.3 C 1324.13 1568.72 1273.25 1571.16 1222.83 1570.72 L 537.315 1570.12 L 352.977 1570.22 C 328.604 1570.17 304.228 1570.64 279.863 1570.24 C 275.375 1570.17 267.08 1569.15 266.37 1563.69 C 266.545 1563.54 268.6 1561.92 268.816 1561.7 C 301.393 1527.12 334.796 1487.65 365.685 1451.99 L 569.532 1217.04 C 583.973 1200.14 599.648 1183.85 614.261 1167.04 L 759.452 1001.06 L 1077.34 635.911 C 1081.65 630.883 1082.67 628.072 1085.08 621.904 C 1083.27 619.476 1078.83 620.425 1075.23 620.467 C 989.631 621.475 903.802 620.83 818.181 620.756 L 374.646 620.76 C 344.862 620.762 315.026 620.766 285.246 620.494 C 278.746 620.435 261.397 623.737 257.263 621.588 C 255.579 618.376 253.978 615.894 253.3 612.338 C 260.022 588.32 265.024 565.745 270.96 541.679 L 298.723 429.096 C 300.82 420.369 304.061 385.434 314.021 385.423 L 1281.19 386.847 C 1370.55 386.978 1459.99 387.161 1549.34 386.153 C 1568.47 385.938 1587.97 386.497 1606.98 384.46 Z" stroke-linecap="round"/>
</g>
</g>
</g>
</svg>